#!OML:ASF F:\VICON\USERDATA\INSTALL\rory3\rory3.ASF
:FULLY-SPECIFIED
:DEGREES
19
root 0.503591 18.1535 -17.012900000000023 -3.308130000000001 -2.213310000000001 -4.931390000000001
lfemur -18.87329999999999 2.9620999999999977 -14.610400000000002
ltibia 67.02799999999996
lfoot -2.7054599999999915 -5.349199999999996
ltoes -3.87972
rfemur -10.374699999999997 7.269600000000004 30.909100000000002
rtibia 29.22830000000002
rfoot -12.253199999999993 -5.787919999999999
rtoes 5.384599999999996
lowerback 1.0 0.05441910000000025 3.186909999999995
upperback -0.3032170000000006 0.6679379999999999 2.3494599999999997
thorax -6.7997 0.258526 0.5654130000000004
lowerneck -15.8182 -3.1899800000000003 -1.866
upperneck 23.876499999999997 -3.9361399999999995 -0.2565690000000005
head 10.2726 -2.01594 -0.30589299999999986
lclavicle -4.0688699999999955e-15 -1.9878500000000024e-14
lhumerus -32.024 4.616190000000001 81.9256
lradius 25.5917
lwrist 2.4673600000000016
lhand -27.8375 19.339599999999997
lfingers 7.12502
lthumb -1.2289799999999997 49.315799999999996
rclavicle -4.0688699999999955e-15 -1.9878500000000024e-14
rhumerus -30.7503 -22.8864 -75.9097
rradius 21.450599999999994
rwrist 7.415799999999997
rhand -17.1705 1.0
rfingers 7.12502
rthumb 9.070820000000001 -5.3047799999999965
20
root 0.48736 18.1148 -16.38070000000004 -3.0809700000000007 -2.476210000000001 -5.475460000000007
lfemur -22.94479999999998 2.6251300000000066 -14.199199999999996
ltibia 64.09459999999996
lfoot -5.627149999999997 -2.9776800000000017
ltoes -6.571260000000006
rfemur -8.301780000000015 7.285929999999993 31.902299999999993
rtibia 29.604400000000002
rfoot -14.418299999999991 -6.59395
rtoes 4.962639999999999
lowerback 1.0 0.3162150000000001 3.8381899999999955
upperback -0.42165699999999984 1.1108699999999996 2.24574
thorax -6.986059999999998 0.4464879999999998 0.013071200000002392
lowerneck -15.541 -3.2143100000000007 -1.83538
upperneck 23.6245 -3.9813199999999993 -0.2496929999999995
head 10.1283 -2.0341700000000005 -0.3062750000000003
lclavicle -1.9288300000000018e-14 -3.77691e-15
lhumerus -33.63669999999999 5.220019999999995 81.9512
lradius 25.704200000000004
lwrist 3.37557
lhand -26.1492 22.3547
lfingers 7.12502
lthumb 0.40160700000000005 52.3341
rclavicle -1.9288300000000018e-14 -3.77691e-15
rhumerus -28.9378 -19.1702 -78.0724
rradius 23.7604
rwrist 4.129180000000003
rhand -15.378800000000004 1.0
rfingers 7.12502
rthumb 10.799400000000006 -13.152399999999998
21
root 0.4632565267984448 18.073500564049308 -14.53938458028408 -2.8471952286419246 -3.032279913354361 -5.596030939343888
lfemur -26.029716122066645 3.322994232562019 -13.886723622247985
ltibia 61.61058564293526
lfoot -6.6262545627921385 -0.10440655538985366
ltoes -3.495549207321631
rfemur -6.465081747856343 5.625657670737949 32.4340275257072
rtibia 30.88218213003367
rfoot -15.425090357287804 -5.463462443229158
rtoes 6.168874960134309
lowerback 1.0 0.9994280654242225 4.916715761495563
upperback 0.13934607932471943 2.094456956585825 2.4283579507506476
thorax -5.935182030577286 0.8534072058392033 -1.0023846425665377
lowerneck -16.025250830578415 -2.896112444336128 -1.5648148829495836
upperneck 23.797575454444438 -3.4213104988559744 -0.6530524097120856
head 10.175088945555192 -1.829694027604045 -0.3865166599244793
lclavicle -3.0518807091282e-15 -2.259202871447978e-15
lhumerus -34.22713036499821 6.030922895973303 81.71525748302685
lradius 24.124713844634055
lwrist 5.090400865678497
lhand -26.704318511145416 23.224493142396792
lfingers nan
lthumb -0.41715831103189815 52.8868530053986
rclavicle -2.8714582123082013e-15 -2.1325165918636026e-15
rhumerus -26.91164905669853 -16.926773068562166 -79.63369691358642
rradius 24.712716448355952
rwrist 1.83610624060816
rhand -17.62398433969198 1.0
rfingers nan
rthumb 8.615040493481413 -8.586203448815917
22
root 0.44294394368377943 17.995530050425824 -14.215864330406175 -2.415825073513202 -3.500790907941261 -6.331589285498417
lfemur -28.48788156013334 2.98389303982649 -13.403647830213526
ltibia 55.19999684487419
lfoot -6.915277609702292 2.760689829585939
ltoes -3.452155583004971
rfemur -5.015781872851738 5.738578006589801 33.17038113366679
rtibia 31.911758270102027
rfoot -15.56721519947595 -4.968096274564665
rtoes 6.647634793799526
lowerback 1.0 1.214923828707751 5.529923805910417
upperback -0.03728054658964533 2.4027601558443736 2.4290065827742513
thorax -5.928337188588017 1.0450546805975964 -1.3897838039411814
lowerneck -16.035747540538384 -2.781432498288356 -1.3314897989020744
upperneck 23.5546257778398 -3.3087725726123987 -0.881077384197492
head 10.113546778337852 -1.8206599650298572 -0.4386189379997267
lclavicle -1.1435946704375907e-15 -1.6636003396228363e-15
lhumerus -34.76336376778523 7.251694097226839 81.22741175443998
lradius 22.419135730330844
lwrist 4.720835708288911
lhand -27.0806982729928 23.546224796133636
lfingers nan
lthumb -0.5363860007432841 53.42299640062204
rclavicle -7.172855621182853e-16 -1.2759978242152347e-15
rhumerus -24.95169379057228 -14.896009047589182 -80.64936807009072
rradius 25.372792770258904
rwrist 0.7221602139620709
rhand -18.218299711007237 1.0
rfingers nan
rthumb 7.973192968460192 -5.668221721116163
23
root 0.4429316409773031 17.957753721453436 -13.362294998321142 -1.8881347560585233 -3.68811957415572 -6.8905221128670195
lfemur -29.677062975353373 1.5706855942381974 -12.677051621113101
ltibia 46.18995765408801
lfoot -5.8465379137283096 4.128359791868787
ltoes -3.7471450646758955
rfemur -2.8247021293931436 6.0206396845384464 33.82061449816297
rtibia 31.131129014759363
rfoot -15.180978917997761 -4.939585246169299
rtoes 6.141377141555256
lowerback 1.0 1.3981488343286774 6.055044886667774
upperback -0.1280330007761564 2.693855005548282 2.4713333616318445
thorax -5.810844294604634 1.212662127294746 -1.4987587348299003
lowerneck -16.174073093071122 -2.787518790745713 -1.389739869279449
upperneck 23.33826706720105 -3.2901386150623884 -0.7564447199160408
head 9.999618936521825 -1.803602417182225 -0.38958162993603257
lclavicle -2.886023055797804e-15 -3.4813726951688875e-15
lhumerus -35.51938050330242 8.91774749926709 80.3584091466944
lradius 19.942493440332793
lwrist 4.176799015376627
lhand -27.08003266042478 23.69403267676827
lfingers nan
lthumb -0.6632010412230928 53.438651331067085
rclavicle -2.3582392974138512e-15 -3.0480288871748076e-15
rhumerus -23.485913030186232 -13.32970913960036 -81.15629581492747
rradius 26.018363415152955
rwrist 0.6985467748374266
rhand -18.53241142264219 1.0
rfingers nan
rthumb 7.784301309386281 -5.455815323178066
24
root 0.4526144776515974 17.95805219556049 -12.64928569171318 -1.3533326882402508 -3.7226352275020176 -7.302018137877081
lfemur -29.76941004093287 -0.9219934114299349 -11.739548112291926
ltibia 35.18944875639915
lfoot -4.9507536288040335 3.396534180138188
ltoes -5.311161971489365
rfemur 0.45200535170561196 6.095348993521105 34.42686485828243
rtibia 28.299925673461175
rfoot -14.846933463258539 -5.545125595124621
rtoes 4.938394834215854
lowerback 1.0 1.5848206687625173 6.3297668837724155
upperback -0.1645175692613208 2.9577275231238707 2.4998644141355095
thorax -5.63423547528879 1.3662048400334337 -1.642890498782118
lowerneck -16.022581478485584 -2.844084438053524 -1.3272499150437178
upperneck 23.0837024082331 -3.37913552444873 -0.7876515032603846
head 9.89617194013791 -1.8362877686297923 -0.41536426588144815
lclavicle -1.6423623510196237e-15 -1.265945660235613e-15
lhumerus -36.17160708287996 10.78051814016099 79.40301824697195
lradius 17.548929568161775
lwrist 3.6165463067479204
lhand -26.944847496964893 23.733494213881652
lfingers nan
lthumb -0.5086036863880823 53.4126937662611
rclavicle -1.287264330589721e-15 -1.0368373877194613e-15
rhumerus -22.158204974733074 -12.18601371216096 -81.45115275531384
rradius 26.599907660444767
rwrist 0.29881170503039733
rhand -18.4246547998695 1.0
rfingers nan
rthumb 7.784497539130225 -5.549555983193532
